<svg xmlns="http://www.w3.org/2000/svg" xmlns:xlink="http://www.w3.org/1999/xlink" xmlns:lucid="lucid" width="2706.26" height="1691.87"><g transform="translate(0 0)" lucid:page-tab-id="0_0"><path d="M960 68c0-4.42 3.58-8 8-8h876.75c4.42 0 8 3.58 8 8v84c0 4.42-3.58 8-8 8H968c-4.42 0-8-3.58-8-8z" stroke="#000" stroke-opacity="0" stroke-width="2" fill="#fff" fill-opacity="0"/><use xlink:href="#a" transform="matrix(1,0,0,1,964,64) translate(143.24888888888898 55.12999999999999)"/><use xlink:href="#b" transform="matrix(1,0,0,1,964,64) translate(392.21555555555557 55.12999999999999)"/><use xlink:href="#c" transform="matrix(1,0,0,1,964,64) translate(526.5377777777778 55.12999999999999)"/><use xlink:href="#d" transform="matrix(1,0,0,1,964,64) translate(553.3044444444445 55.12999999999999)"/><use xlink:href="#e" transform="matrix(1,0,0,1,964,64) translate(660.6155555555554 55.12999999999999)"/><path d="M1137.8 156.74h545.44M1137.83 156.74h-1.03M1683.22 156.74h1.02" stroke="#a9afb8" stroke-width="2" fill="none"/><path d="M360 528c0-4.42 3.58-8 8-8h204c4.42 0 8 3.58 8 8v124c0 4.42-3.58 8-8 8H368c-4.42 0-8-3.58-8-8z" stroke="#333" fill="#d1bcd2"/><use xlink:href="#f" transform="matrix(1,0,0,1,380,520) translate(51.074999999999996 73.60000000000001)"/><path d="M1196.75 251.76c8.84 0 16 7.17 16 16v128c0 8.84-7.16 16-16 16h-168c-8.83 0-16-7.16-16-16v-128c0-8.83 7.17-16 16-16z" stroke="#333" fill="#99d5ca"/><path d="M1012.75 299.76h200" stroke="#333" fill="none"/><use xlink:href="#g" transform="matrix(1,0,0,1,1032.7516144170897,251.76410261471756) translate(67.5 27.6)"/><use xlink:href="#h" transform="matrix(1,0,0,1,1032.7516144170897,309.76410261471756) translate(46.574999999999996 49.6)"/><path d="M581 590h41.25c6.63 0 12-5.37 12-12V335.53c0-6.63 5.37-12 12-12h349.62" stroke="#333" fill="none"/><path d="M581 590.5h-.5v-1h.5z" fill="#333"/><path d="M1010.63 323.53l-14.26 4.63v-9.27z" stroke="#333" fill="#333"/><use xlink:href="#i" transform="matrix(1,0,0,1,761.27621879802,327.5282052294352) translate(13.530000000000001 14.4)"/><use xlink:href="#j" transform="matrix(1,0,0,1,761.27621879802,327.5282052294352) translate(17.03 36)"/><use xlink:href="#k" transform="matrix(1,0,0,1,761.27621879802,327.5282052294352) translate(0.005000000000002558 57.6)"/><path d="M1700 309.76c0-4.4 3.58-8 8-8h224c4.42 0 8 3.6 8 8v44c0 4.42-3.58 8-8 8h-224c-4.42 0-8-3.58-8-8z" fill="#19967d"/><path d="M1940 301.76h-232c-4.42 0-8 3.6-8 8v44c0 4.42 3.58 8 8 8h232M1748 301.76v60" stroke="#333" fill="none"/><use xlink:href="#l" transform="matrix(1,0,0,1,1760,313.76410261471756) translate(38.074999999999996 21.6)"/><use xlink:href="#m" transform="matrix(1,0,0,1,1760,313.76410261471756) translate(89.975 21.6)"/><path d="M1213.75 331.76h469.37" stroke="#333" fill="none"/><path d="M1213.76 332.26h-.5v-1h.5z" fill="#333"/><path d="M1697.88 331.76l-14.26 4.64v-9.27z" stroke="#333" fill="#333"/><use xlink:href="#n" transform="matrix(1,0,0,1,1408.9758072085447,335.76410261471756) translate(0.005000000000002558 14.4)"/><use xlink:href="#o" transform="matrix(1,0,0,1,1408.9758072085447,335.76410261471756) translate(42.90500000000001 14.4)"/><path d="M1196.75 510c8.84 0 16 7.16 16 16v128c0 8.84-7.16 16-16 16h-168c-8.83 0-16-7.16-16-16V526c0-8.84 7.17-16 16-16z" stroke="#333" fill="#99d5ca"/><path d="M1012.75 558h200" stroke="#333" fill="none"/><use xlink:href="#p" transform="matrix(1,0,0,1,1032.7516144170897,510) translate(67.5 27.6)"/><use xlink:href="#q" transform="matrix(1,0,0,1,1032.7516144170897,568) translate(58.025 49.6)"/><path d="M581 625.6h203.38c6.62 0 12-5.37 12-12V602c0-6.63 5.37-12 12-12h187.5" stroke="#333" fill="none"/><path d="M581 626.1h-.5v-1h.5z" fill="#333"/><path d="M1010.63 590l-14.26 4.64v-9.28z" stroke="#333" fill="#333"/><use xlink:href="#r" transform="matrix(1,0,0,1,726.1790587422811,629.6002420809606) translate(6.480000000000004 14.4)"/><use xlink:href="#s" transform="matrix(1,0,0,1,726.1790587422811,629.6002420809606) translate(0.005000000000002558 36)"/><path d="M1819.82 362.76v61.12c0 6.63-5.37 12-12 12h-683.07c-6.63 0-12 5.37-12 12v45.24" stroke="#333" fill="none"/><path d="M1820.32 362.78h-1v-.52h1z" fill="#333"/><path d="M1112.75 507.88l-4.63-14.26h9.27z" stroke="#333" fill="#333"/><use xlink:href="#n" transform="matrix(1,0,0,1,1380.612156372892,439.8820513073588) translate(0.005000000000002558 14.4)"/><use xlink:href="#t" transform="matrix(1,0,0,1,1380.612156372892,439.8820513073588) translate(42.90500000000001 14.4)"/><path d="M984 900c8.84 0 16 7.16 16 16v128c0 8.84-7.16 16-16 16H816c-8.84 0-16-7.16-16-16V916c0-8.84 7.16-16 16-16z" stroke="#333" fill="#ffbbb1"/><path d="M800 948h200" stroke="#333" fill="none"/><use xlink:href="#u" transform="matrix(1,0,0,1,820,900) translate(67.5 27.6)"/><use xlink:href="#v" transform="matrix(1,0,0,1,820,958) translate(57.05 49.6)"/><path d="M470 661v307c0 6.63 5.37 12 12 12h301.12" stroke="#333" fill="none"/><path d="M470.5 661h-1v-.5h1z" fill="#333"/><path d="M797.88 980l-14.26 4.64v-9.28z" stroke="#333" fill="#333"/><use xlink:href="#w" transform="matrix(1,0,0,1,519.28161196821,984) translate(0.005000000000002558 14.4)"/><use xlink:href="#x" transform="matrix(1,0,0,1,519.28161196821,984) translate(50.90500000000001 14.4)"/><path d="M1720 878c0-4.42 3.58-8 8-8h224c4.42 0 8 3.58 8 8v44c0 4.42-3.58 8-8 8h-224c-4.42 0-8-3.58-8-8z" fill="#fcc438"/><path d="M1960 870h-232c-4.42 0-8 3.58-8 8v44c0 4.42 3.58 8 8 8h232M1768 870v60" stroke="#333" fill="none"/><use xlink:href="#y" transform="matrix(1,0,0,1,1780,882) translate(37.05 21.6)"/><use xlink:href="#z" transform="matrix(1,0,0,1,1780,882) translate(87 21.6)"/><path d="M1424 820c8.84 0 16 7.16 16 16v128c0 8.84-7.16 16-16 16h-168c-8.84 0-16-7.16-16-16V836c0-8.84 7.16-16 16-16z" stroke="#333" fill="#ffbbb1"/><path d="M1240 868h200" stroke="#333" fill="none"/><use xlink:href="#A" transform="matrix(1,0,0,1,1260,820) translate(67.5 27.6)"/><use xlink:href="#B" transform="matrix(1,0,0,1,1260,878) translate(14.825000000000003 49.6)"/><use xlink:href="#C" transform="matrix(1,0,0,1,1260,878) translate(64.725 49.6)"/><path d="M1340 819v-27.5c0-6.63-5.37-12-12-12H912c-6.63 0-12 5.37-12 12v91.62" stroke="#333" fill="none"/><path d="M1340.5 819.5h-1v-.5h1z" fill="#333"/><path d="M900 897.88l-4.64-14.26h9.28z" stroke="#333" fill="#333"/><use xlink:href="#D" transform="matrix(1,0,0,1,1069.146453720582,783.5000000000001) translate(0.005000000000002558 14.4)"/><path d="M1719 900h-262.12" stroke="#333" fill="none"/><path d="M1719.5 900.5h-.5v-1h.5z" fill="#333"/><path d="M1442.12 900l14.26-4.64v9.28z" stroke="#333" fill="#333"/><use xlink:href="#E" transform="matrix(1,0,0,1,1507.775,904) translate(0.0049999999999954525 14.4)"/><use xlink:href="#F" transform="matrix(1,0,0,1,1507.775,904) translate(77.505 14.4)"/><path d="M1720 1128c0-4.42 3.58-8 8-8h224c4.42 0 8 3.58 8 8v44c0 4.42-3.58 8-8 8h-224c-4.42 0-8-3.58-8-8z" fill="#ff8f80"/><path d="M1960 1120h-232c-4.42 0-8 3.58-8 8v44c0 4.42 3.58 8 8 8h232M1768 1120v60" stroke="#333" fill="none"/><use xlink:href="#G" transform="matrix(1,0,0,1,1780,1132) translate(56.55 21.6)"/><path d="M900 1061v147.5c0 6.63 5.37 12 12 12h916c6.63 0 12-5.37 12-12v-11.62" stroke="#333" fill="none"/><path d="M900.5 1061h-1v-.5h1z" fill="#333"/><path d="M1840 1182.12l4.64 14.26h-9.28z" stroke="#333" fill="#333"/><use xlink:href="#H" transform="matrix(1,0,0,1,1371.0006851403161,1224.5) translate(0.0049999999999954525 14.4)"/><use xlink:href="#I" transform="matrix(1,0,0,1,1371.0006851403161,1224.5) translate(82.855 14.4)"/><path d="M854.57 1061v27.5c0 6.63-5.37 12-12 12H412.73c-6.63 0-12-5.37-12-12V676.88" stroke="#333" fill="none"/><path d="M855.07 1061h-1v-.5h1z" fill="#333"/><path d="M400.73 662.12l4.63 14.26h-9.27z" stroke="#333" fill="#333"/><use xlink:href="#w" transform="matrix(1,0,0,1,438.6892102607576,1104.5) translate(0.0049999999999954525 14.4)"/><use xlink:href="#J" transform="matrix(1,0,0,1,438.6892102607576,1104.5) translate(50.905 14.4)"/><path d="M1213.75 540.66h672.33c6.63 0 12-5.38 12-12v-150" stroke="#333" fill="none"/><path d="M1213.76 541.16h-.5v-1h.5z" fill="#333"/><path d="M1898.08 363.88l4.64 14.27h-9.27z" stroke="#333" fill="#333"/><use xlink:href="#K" transform="matrix(1,0,0,1,1559.274219484171,544.6550315397428) translate(0.005000000000002558 14.4)"/><use xlink:href="#L" transform="matrix(1,0,0,1,1559.274219484171,544.6550315397428) translate(48.955000000000005 14.4)"/><path d="M1068.86 671v37c0 6.63-5.38 12-12 12h-205c-6.63 0-12 5.37-12 12v151.12" stroke="#333" fill="none"/><path d="M1069.36 671h-1v-.5h1z" fill="#333"/><path d="M839.86 897.88l-4.64-14.26h9.27z" stroke="#333" fill="#333"/><use xlink:href="#M" transform="matrix(1,0,0,1,862.5667158340423,724) translate(0.0049999999999954525 14.4)"/><use xlink:href="#N" transform="matrix(1,0,0,1,862.5667158340423,724) translate(114.955 14.4)"/><path d="M996.75 1380c8.84 0 16 7.16 16 16v128c0 8.84-7.16 16-16 16h-168c-8.83 0-16-7.16-16-16v-128c0-8.84 7.17-16 16-16z" stroke="#333" fill="#f9d2de"/><path d="M812.75 1428h200" stroke="#333" fill="none"/><use xlink:href="#O" transform="matrix(1,0,0,1,832.7516144170897,1380) translate(67.5 27.6)"/><use xlink:href="#w" transform="matrix(1,0,0,1,832.7516144170897,1438) translate(27.574999999999996 49.6)"/><use xlink:href="#P" transform="matrix(1,0,0,1,832.7516144170897,1438) translate(78.475 49.6)"/><path d="M359 629.3h-27.5c-6.63 0-12 5.37-12 12V1448c0 6.63 5.37 12 12 12h464.37" stroke="#333" fill="none"/><path d="M359.5 629.8h-.5v-1h.5z" fill="#333"/><path d="M810.63 1460l-14.26 4.64v-9.28z" stroke="#333" fill="#333"/><use xlink:href="#w" transform="matrix(1,0,0,1,530.2078783503014,1464) translate(0.005000000000002558 14.4)"/><use xlink:href="#Q" transform="matrix(1,0,0,1,530.2078783503014,1464) translate(50.90500000000001 14.4)"/><path d="M1424 1380c8.84 0 16 7.16 16 16v128c0 8.84-7.16 16-16 16h-168c-8.84 0-16-7.16-16-16v-128c0-8.84 7.16-16 16-16z" stroke="#333" fill="#f9d2de"/><path d="M1240 1428h200" stroke="#333" fill="none"/><use xlink:href="#R" transform="matrix(1,0,0,1,1260,1380) translate(67.5 27.6)"/><use xlink:href="#B" transform="matrix(1,0,0,1,1260,1438) translate(32.099999999999994 49.6)"/><use xlink:href="#I" transform="matrix(1,0,0,1,1260,1438) translate(82 49.6)"/><path d="M1872.5 1181v267c0 6.63-5.36 12-12 12H1456.9" stroke="#333" fill="none"/><path d="M1873 1181h-1v-.5h1z" fill="#333"/><path d="M1442.12 1460l14.26-4.64v9.28z" stroke="#333" fill="#333"/><use xlink:href="#H" transform="matrix(1,0,0,1,1687.8492289674416,1464) translate(0.0049999999999954525 14.4)"/><use xlink:href="#I" transform="matrix(1,0,0,1,1687.8492289674416,1464) translate(82.855 14.4)"/><path d="M1239 1460h-209.36" stroke="#333" fill="none"/><path d="M1239.5 1460.5h-.5v-1h.5z" fill="#333"/><path d="M1014.87 1460l14.27-4.64v9.28z" stroke="#333" fill="#333"/><use xlink:href="#S" transform="matrix(1,0,0,1,1070.9508072085448,1464) translate(0.005000000000002558 14.4)"/><use xlink:href="#F" transform="matrix(1,0,0,1,1070.9508072085448,1464) translate(43.90500000000001 14.4)"/><path d="M912.75 1541v27.5c0 6.63-5.37 12-12 12H252c-6.63 0-12-5.37-12-12V602c0-6.63 5.37-12 12-12h91.12" stroke="#333" fill="none"/><path d="M913.25 1541h-1v-.5h1z" fill="#333"/><path d="M357.88 590l-14.26 4.64v-9.28z" stroke="#333" fill="#333"/><use xlink:href="#T" transform="matrix(1,0,0,1,549.6718017555806,1584.5) translate(0.004999999999999005 14.4)"/><path d="M954.34 1568.47l.4 3 1.14 2.77 1.83 2.4 2.4 1.82 2.76 1.14 3 .4h585.1v1H965.8l-3.2-.42-3-1.24-2.6-2-2-2.6-1.24-3-.42-3.2V1541h1zm964.1.06l-.43 3.2-1.23 3-2 2.6-2.6 2-3 1.25-3.2.42H1680.8v-1h225.1l3.02-.4 2.75-1.14 2.4-1.83 1.83-2.4 1.14-2.75.4-3v-371.6h1zM954.34 1541h-1v-.5h1zM1922.57 1196.38h-9.27l4.63-14.26z" fill="#333"/><path d="M1923.26 1196.88h-10.65l5.33-16.38zm-9.27-1h7.88l-3.95-12.14z" fill="#333"/><use xlink:href="#w" transform="matrix(1,0,0,1,1550.960991623165,1569.7) translate(0.0049999999999954525 14.4)"/><use xlink:href="#U" transform="matrix(1,0,0,1,1550.960991623165,1569.7) translate(50.905 14.4)"/><use xlink:href="#V" transform="matrix(1,0,0,1,1550.960991623165,1569.7) translate(109.855 14.4)"/><path d="M2280 548c0-4.42 3.58-8 8-8h244c4.42 0 8 3.58 8 8v124c0 4.42-3.58 8-8 8h-244c-4.42 0-8-3.58-8-8z" stroke="#333" fill="#b2d6ef"/><use xlink:href="#W" transform="matrix(1,0,0,1,2300,540) translate(60.574999999999996 73.60000000000001)"/><use xlink:href="#X" transform="matrix(1,0,0,1,2300,540) translate(108.525 73.60000000000001)"/><path d="M2279 590H1229.64" stroke="#333" fill="none"/><path d="M2279.5 590.5h-.5v-1h.5z" fill="#333"/><path d="M1214.87 590l14.27-4.64v9.28z" stroke="#333" fill="#333"/><use xlink:href="#W" transform="matrix(1,0,0,1,1548.1316101321452,594) translate(0.0049999999999954525 14.4)"/><use xlink:href="#Y" transform="matrix(1,0,0,1,1548.1316101321452,594) translate(47.955 14.4)"/><use xlink:href="#Z" transform="matrix(1,0,0,1,1548.1316101321452,594) translate(103.855 14.4)"/><path d="M2264 930c8.84 0 16 7.16 16 16v128c0 8.84-7.16 16-16 16h-168c-8.84 0-16-7.16-16-16V946c0-8.84 7.16-16 16-16z" stroke="#333" fill="#ffdba9"/><path d="M2080 978h200" stroke="#333" fill="none"/><g><use xlink:href="#aa" transform="matrix(1,0,0,1,2100,930) translate(67.5 27.6)"/></g><g><use xlink:href="#ab" transform="matrix(1,0,0,1,2100,988) translate(8.099999999999994 49.6)"/><use xlink:href="#ac" transform="matrix(1,0,0,1,2100,988) translate(67 49.6)"/><use xlink:href="#ad" transform="matrix(1,0,0,1,2100,988) translate(116.95 49.6)"/></g><path d="M2410 681v317c0 6.63-5.37 12-12 12h-101.12" stroke="#333" fill="none"/><path d="M2410.5 681h-1v-.5h1z" fill="#333"/><path d="M2282.12 1010l14.26-4.64v9.28z" stroke="#333" fill="#333"/><g><use xlink:href="#S" transform="matrix(1,0,0,1,2310.6002438615087,1014) translate(0.005000000000002558 14.4)"/><use xlink:href="#x" transform="matrix(1,0,0,1,2310.6002438615087,1014) translate(43.90500000000001 14.4)"/></g><path d="M2079 1010h-227c-6.63 0-12-5.37-12-12v-51.12" stroke="#333" fill="none"/><path d="M2079.5 1010.5h-.5v-1h.5z" fill="#333"/><path d="M1840 932.12l4.64 14.26h-9.28z" stroke="#333" fill="#333"/><g><use xlink:href="#y" transform="matrix(1,0,0,1,1860.757901084556,1014) translate(0.0049999999999954525 14.4)"/><use xlink:href="#ae" transform="matrix(1,0,0,1,1860.757901084556,1014) translate(49.955 14.4)"/><use xlink:href="#x" transform="matrix(1,0,0,1,1860.757901084556,1014) translate(89.905 14.4)"/></g><path d="M1156.77 671v47c0 6.63 5.37 12 12 12H2168c6.63 0 12 5.37 12 12v171.12" stroke="#333" fill="none"/><path d="M1157.27 671h-1v-.5h1z" fill="#333"/><path d="M2180 927.88l-4.64-14.26h9.28z" stroke="#333" fill="#333"/><g><use xlink:href="#M" transform="matrix(1,0,0,1,1681.3641354857887,734.0000000000001) translate(0.0049999999999954525 14.4)"/><use xlink:href="#af" transform="matrix(1,0,0,1,1681.3641354857887,734.0000000000001) translate(114.955 14.4)"/><use xlink:href="#X" transform="matrix(1,0,0,1,1681.3641354857887,734.0000000000001) translate(162.905 14.4)"/></g><path d="M1504 1000c8.84 0 16 7.16 16 16v128c0 8.84-7.16 16-16 16h-168c-8.84 0-16-7.16-16-16v-128c0-8.84 7.16-16 16-16z" stroke="#333" fill="#ffbbb1"/><path d="M1320 1048h200" stroke="#333" fill="none"/><g><use xlink:href="#ag" transform="matrix(1,0,0,1,1340,1000) translate(67.5 27.6)"/></g><g><use xlink:href="#ah" transform="matrix(1,0,0,1,1340,1058) translate(6.324999999999989 49.6)"/><use xlink:href="#ai" transform="matrix(1,0,0,1,1340,1058) translate(69.27499999999999 49.6)"/></g><path d="M1001 980h57c6.63 0 12 5.37 12 12v76c0 6.63 5.37 12 12 12h221.12" stroke="#333" fill="none"/><path d="M1001 980.5h-.5v-1h.5z" fill="#333"/><path d="M1317.88 1080l-14.26 4.64v-9.28z" stroke="#333" fill="#333"/><g><use xlink:href="#w" transform="matrix(1,0,0,1,1122.7505635143698,1084) translate(0.005000000000002558 14.4)"/><use xlink:href="#F" transform="matrix(1,0,0,1,1122.7505635143698,1084) translate(50.90500000000001 14.4)"/></g><path d="M1521 1080h253.8c6.63 0 12-5.37 12-12V946.88" stroke="#333" fill="none"/><path d="M1521 1080.5h-.5v-1h.5z" fill="#333"/><path d="M1786.8 932.12l4.63 14.26h-9.27z" stroke="#333" fill="#333"/><g><use xlink:href="#E" transform="matrix(1,0,0,1,1598.6845149603507,1084) translate(0.0049999999999954525 14.4)"/><use xlink:href="#F" transform="matrix(1,0,0,1,1598.6845149603507,1084) translate(77.505 14.4)"/></g><defs><path fill="#a9afb8" d="M186 0v-106H76V0H24v-248h52v99h110v-99h50V0h-50" id="aj"/><path fill="#a9afb8" d="M110-194c64 0 96 36 96 99 0 64-35 99-97 99-61 0-95-36-95-99 0-62 34-99 96-99zm-1 164c35 0 45-28 45-65 0-40-10-65-43-65-34 0-45 26-45 65 0 36 10 65 43 65" id="ak"/><path fill="#a9afb8" d="M220-157c-53 9-28 100-34 157h-49v-107c1-27-5-49-29-50C55-147 81-57 75 0H25l-1-190h47c2 12-1 28 3 38 10-53 101-56 108 0 13-22 24-43 59-42 82 1 51 116 57 194h-49v-107c-1-25-5-48-29-50" id="al"/><path fill="#a9afb8" d="M185-48c-13 30-37 53-82 52C43 2 14-33 14-96s30-98 90-98c62 0 83 45 84 108H66c0 31 8 55 39 56 18 0 30-7 34-22zm-45-69c5-46-57-63-70-21-2 6-4 13-4 21h74" id="am"/><path fill="#a9afb8" d="M133-34C117-15 103 5 69 4 32 3 11-16 11-54c-1-60 55-63 116-61 1-26-3-47-28-47-18 1-26 9-28 27l-52-2c7-38 36-58 82-57s74 22 75 68l1 82c-1 14 12 18 25 15v27c-30 8-71 5-69-32zm-48 3c29 0 43-24 42-57-32 0-66-3-65 30 0 17 8 27 23 27" id="an"/><path fill="#a9afb8" d="M88-194c31-1 46 15 58 34l-1-101h50l1 261h-48c-2-10 0-23-3-31C134-8 116 4 84 4 32 4 16-41 15-95c0-56 19-97 73-99zm17 164c33 0 40-30 41-66 1-37-9-64-41-64s-38 30-39 65c0 43 13 65 39 65" id="ao"/><g id="a"><use transform="matrix(0.12222222222222218,0,0,0.12222222222222218,0,0)" xlink:href="#aj"/><use transform="matrix(0.12222222222222218,0,0,0.12222222222222218,31.655555555555544,0)" xlink:href="#ak"/><use transform="matrix(0.12222222222222218,0,0,0.12222222222222218,58.4222222222222,0)" xlink:href="#al"/><use transform="matrix(0.12222222222222218,0,0,0.12222222222222218,97.5333333333333,0)" xlink:href="#am"/><use transform="matrix(0.12222222222222218,0,0,0.12222222222222218,121.97777777777773,0)" xlink:href="#al"/><use transform="matrix(0.12222222222222218,0,0,0.12222222222222218,161.08888888888885,0)" xlink:href="#an"/><use transform="matrix(0.12222222222222218,0,0,0.12222222222222218,185.53333333333327,0)" xlink:href="#ao"/><use transform="matrix(0.12222222222222218,0,0,0.12222222222222218,212.29999999999993,0)" xlink:href="#am"/></g><path fill="#a9afb8" d="M230 0l2-204L168 0h-37L68-204 70 0H24v-248h70l56 185 57-185h69V0h-46" id="ap"/><path fill="#a9afb8" d="M25 0v-261h50V0H25" id="aq"/><path fill="#a9afb8" d="M137-138c1-29-70-34-71-4 15 46 118 7 119 86 1 83-164 76-172 9l43-7c4 19 20 25 44 25 33 8 57-30 24-41C81-84 22-81 20-136c-2-80 154-74 161-7" id="ar"/><g id="b"><use transform="matrix(0.12222222222222218,0,0,0.12222222222222218,0,0)" xlink:href="#ap"/><use transform="matrix(0.12222222222222218,0,0,0.12222222222222218,36.54444444444443,0)" xlink:href="#am"/><use transform="matrix(0.12222222222222218,0,0,0.12222222222222218,60.988888888888866,0)" xlink:href="#an"/><use transform="matrix(0.12222222222222218,0,0,0.12222222222222218,85.43333333333331,0)" xlink:href="#aq"/><use transform="matrix(0.12222222222222218,0,0,0.12222222222222218,97.65555555555552,0)" xlink:href="#ar"/></g><path fill="#a9afb8" d="M14-72v-43h91v43H14" id="as"/><use transform="matrix(0.12222222222222218,0,0,0.12222222222222218,0,0)" xlink:href="#as" id="c"/><path fill="#a9afb8" d="M24-248c120-7 223 5 221 122C244-46 201 0 124 0H24v-248zM76-40c74 7 117-18 117-86 0-67-45-88-117-82v168" id="at"/><path fill="#a9afb8" d="M115-3C79 11 28 4 28-45v-112H4v-33h27l15-45h31v45h36v33H77v99c-1 23 16 31 38 25v30" id="au"/><g id="d"><use transform="matrix(0.12222222222222218,0,0,0.12222222222222218,0,0)" xlink:href="#at"/><use transform="matrix(0.12222222222222218,0,0,0.12222222222222218,31.655555555555544,0)" xlink:href="#an"/><use transform="matrix(0.12222222222222218,0,0,0.12222222222222218,56.09999999999998,0)" xlink:href="#au"/><use transform="matrix(0.12222222222222218,0,0,0.12222222222222218,70.64444444444442,0)" xlink:href="#an"/></g><path fill="#a9afb8" d="M121-226c-27-7-43 5-38 36h38v33H83V0H34v-157H6v-33h28c-9-59 32-81 87-68v32" id="av"/><path fill="#a9afb8" d="M231 0h-52l-39-155L100 0H48L-1-190h46L77-45c9-52 24-97 36-145h53l37 145 32-145h46" id="aw"/><g id="e"><use transform="matrix(0.12222222222222218,0,0,0.12222222222222218,0,0)" xlink:href="#av"/><use transform="matrix(0.12222222222222218,0,0,0.12222222222222218,14.544444444444439,0)" xlink:href="#aq"/><use transform="matrix(0.12222222222222218,0,0,0.12222222222222218,26.76666666666666,0)" xlink:href="#ak"/><use transform="matrix(0.12222222222222218,0,0,0.12222222222222218,53.53333333333332,0)" xlink:href="#aw"/></g><path fill="#333" d="M212-179c-10-28-35-45-73-45-59 0-87 40-87 99 0 60 29 101 89 101 43 0 62-24 78-52l27 14C228-24 195 4 139 4 59 4 22-46 18-125c-6-104 99-153 187-111 19 9 31 26 39 46" id="ax"/><path fill="#333" d="M84 4C-5 8 30-112 23-190h32v120c0 31 7 50 39 49 72-2 45-101 50-169h31l1 190h-30c-1-10 1-25-2-33-11 22-28 36-60 37" id="ay"/><path fill="#333" d="M135-143c-3-34-86-38-87 0 15 53 115 12 119 90S17 21 10-45l28-5c4 36 97 45 98 0-10-56-113-15-118-90-4-57 82-63 122-42 12 7 21 19 24 35" id="az"/><path fill="#333" d="M59-47c-2 24 18 29 38 22v24C64 9 27 4 27-40v-127H5v-23h24l9-43h21v43h35v23H59v120" id="aA"/><path fill="#333" d="M100-194c62-1 85 37 85 99 1 63-27 99-86 99S16-35 15-95c0-66 28-99 85-99zM99-20c44 1 53-31 53-75 0-43-8-75-51-75s-53 32-53 75 10 74 51 75" id="aB"/><path fill="#333" d="M210-169c-67 3-38 105-44 169h-31v-121c0-29-5-50-35-48C34-165 62-65 56 0H25l-1-190h30c1 10-1 24 2 32 10-44 99-50 107 0 11-21 27-35 58-36 85-2 47 119 55 194h-31v-121c0-29-5-49-35-48" id="aC"/><path fill="#333" d="M100-194c63 0 86 42 84 106H49c0 40 14 67 53 68 26 1 43-12 49-29l28 8c-11 28-37 45-77 45C44 4 14-33 15-96c1-61 26-98 85-98zm52 81c6-60-76-77-97-28-3 7-6 17-6 28h103" id="aD"/><path fill="#333" d="M114-163C36-179 61-72 57 0H25l-1-190h30c1 12-1 29 2 39 6-27 23-49 58-41v29" id="aE"/><g id="f"><use transform="matrix(0.05,0,0,0.05,0,0)" xlink:href="#ax"/><use transform="matrix(0.05,0,0,0.05,12.950000000000001,0)" xlink:href="#ay"/><use transform="matrix(0.05,0,0,0.05,22.950000000000003,0)" xlink:href="#az"/><use transform="matrix(0.05,0,0,0.05,31.950000000000003,0)" xlink:href="#aA"/><use transform="matrix(0.05,0,0,0.05,36.95,0)" xlink:href="#aB"/><use transform="matrix(0.05,0,0,0.05,46.95,0)" xlink:href="#aC"/><use transform="matrix(0.05,0,0,0.05,61.900000000000006,0)" xlink:href="#aD"/><use transform="matrix(0.05,0,0,0.05,71.9,0)" xlink:href="#aE"/></g><path fill="#333" d="M27 0v-27h64v-190l-56 39v-29l58-41h29v221h61V0H27" id="aF"/><path fill="#333" d="M33 0v-38h34V0H33" id="aG"/><path fill="#333" d="M101-251c68 0 85 55 85 127S166 4 100 4C33 4 14-52 14-124c0-73 17-127 87-127zm-1 229c47 0 54-49 54-102s-4-102-53-102c-51 0-55 48-55 102 0 53 5 102 54 102" id="aH"/><g id="g"><use transform="matrix(0.05,0,0,0.05,0,0)" xlink:href="#aF"/><use transform="matrix(0.05,0,0,0.05,10,0)" xlink:href="#aG"/><use transform="matrix(0.05,0,0,0.05,15,0)" xlink:href="#aH"/></g><path fill="#333" d="M233-177c-1 41-23 64-60 70L243 0h-38l-65-103H63V0H30v-248c88 3 205-21 203 71zM63-129c60-2 137 13 137-47 0-61-80-42-137-45v92" id="aI"/><path fill="#333" d="M177-190C167-65 218 103 67 71c-23-6-38-20-44-43l32-5c15 47 100 32 89-28v-30C133-14 115 1 83 1 29 1 15-40 15-95c0-56 16-97 71-98 29-1 48 16 59 35 1-10 0-23 2-32h30zM94-22c36 0 50-32 50-73 0-42-14-75-50-75-39 0-46 34-46 75s6 73 46 73" id="aJ"/><path fill="#333" d="M24-231v-30h32v30H24zM24 0v-190h32V0H24" id="aK"/><g id="h"><use transform="matrix(0.05,0,0,0.05,0,0)" xlink:href="#aI"/><use transform="matrix(0.05,0,0,0.05,12.950000000000001,0)" xlink:href="#aD"/><use transform="matrix(0.05,0,0,0.05,22.950000000000003,0)" xlink:href="#aJ"/><use transform="matrix(0.05,0,0,0.05,32.95,0)" xlink:href="#aK"/><use transform="matrix(0.05,0,0,0.05,36.900000000000006,0)" xlink:href="#az"/><use transform="matrix(0.05,0,0,0.05,45.900000000000006,0)" xlink:href="#aA"/><use transform="matrix(0.05,0,0,0.05,50.900000000000006,0)" xlink:href="#aD"/><use transform="matrix(0.05,0,0,0.05,60.900000000000006,0)" xlink:href="#aE"/></g><path fill="#333" d="M232-93c-1 65-40 97-104 97C67 4 28-28 28-90v-158h33c8 89-33 224 67 224 102 0 64-133 71-224h33v155" id="aL"/><path fill="#333" d="M85-194c31 0 48 13 60 33l-1-100h32l1 261h-30c-2-10 0-23-3-31C134-8 116 4 85 4 32 4 16-35 15-94c0-66 23-100 70-100zm9 24c-40 0-46 34-46 75 0 40 6 74 45 74 42 0 51-32 51-76 0-42-9-74-50-73" id="aM"/><g id="i"><use transform="matrix(0.05,0,0,0.05,0,0)" xlink:href="#aL"/><use transform="matrix(0.05,0,0,0.05,12.950000000000001,0)" xlink:href="#az"/><use transform="matrix(0.05,0,0,0.05,21.950000000000003,0)" xlink:href="#aD"/><use transform="matrix(0.05,0,0,0.05,31.950000000000003,0)" xlink:href="#aE"/><use transform="matrix(0.05,0,0,0.05,37.900000000000006,0)" xlink:href="#aK"/><use transform="matrix(0.05,0,0,0.05,41.85000000000001,0)" xlink:href="#aM"/></g><path fill="#333" d="M30 0v-248h187v28H63v79h144v27H63v87h162V0H30" id="aN"/><path fill="#333" d="M141-36C126-15 110 5 73 4 37 3 15-17 15-53c-1-64 63-63 125-63 3-35-9-54-41-54-24 1-41 7-42 31l-33-3c5-37 33-52 76-52 45 0 72 20 72 64v82c-1 20 7 32 28 27v20c-31 9-61-2-59-35zM48-53c0 20 12 33 32 33 41-3 63-29 60-74-43 2-92-5-92 41" id="aO"/><path fill="#333" d="M24 0v-261h32V0H24" id="aP"/><g id="j"><use transform="matrix(0.05,0,0,0.05,0,0)" xlink:href="#aN"/><use transform="matrix(0.05,0,0,0.05,12,0)" xlink:href="#aC"/><use transform="matrix(0.05,0,0,0.05,26.950000000000003,0)" xlink:href="#aO"/><use transform="matrix(0.05,0,0,0.05,36.95,0)" xlink:href="#aK"/><use transform="matrix(0.05,0,0,0.05,40.900000000000006,0)" xlink:href="#aP"/></g><path fill="#333" d="M30-248c87 1 191-15 191 75 0 78-77 80-158 76V0H30v-248zm33 125c57 0 124 11 124-50 0-59-68-47-124-48v98" id="aQ"/><path fill="#333" d="M206 0h-36l-40-164L89 0H53L-1-190h32L70-26l43-164h34l41 164 42-164h31" id="aR"/><g id="k"><use transform="matrix(0.05,0,0,0.05,0,0)" xlink:href="#aQ"/><use transform="matrix(0.05,0,0,0.05,12,0)" xlink:href="#aO"/><use transform="matrix(0.05,0,0,0.05,22,0)" xlink:href="#az"/><use transform="matrix(0.05,0,0,0.05,31,0)" xlink:href="#az"/><use transform="matrix(0.05,0,0,0.05,40,0)" xlink:href="#aR"/><use transform="matrix(0.05,0,0,0.05,52.95,0)" xlink:href="#aB"/><use transform="matrix(0.05,0,0,0.05,62.95,0)" xlink:href="#aE"/><use transform="matrix(0.05,0,0,0.05,68.9,0)" xlink:href="#aM"/></g><g id="l"><use transform="matrix(0.05,0,0,0.05,0,0)" xlink:href="#aL"/><use transform="matrix(0.05,0,0,0.05,12.950000000000001,0)" xlink:href="#az"/><use transform="matrix(0.05,0,0,0.05,21.950000000000003,0)" xlink:href="#aD"/><use transform="matrix(0.05,0,0,0.05,31.950000000000003,0)" xlink:href="#aE"/><use transform="matrix(0.05,0,0,0.05,37.900000000000006,0)" xlink:href="#az"/></g><g id="m"><use transform="matrix(0.05,0,0,0.05,0,0)" xlink:href="#az"/><use transform="matrix(0.05,0,0,0.05,9,0)" xlink:href="#aA"/><use transform="matrix(0.05,0,0,0.05,14,0)" xlink:href="#aB"/><use transform="matrix(0.05,0,0,0.05,24,0)" xlink:href="#aE"/><use transform="matrix(0.05,0,0,0.05,29.950000000000003,0)" xlink:href="#aD"/></g><g id="n"><use transform="matrix(0.05,0,0,0.05,0,0)" xlink:href="#aL"/><use transform="matrix(0.05,0,0,0.05,12.950000000000001,0)" xlink:href="#az"/><use transform="matrix(0.05,0,0,0.05,21.950000000000003,0)" xlink:href="#aD"/><use transform="matrix(0.05,0,0,0.05,31.950000000000003,0)" xlink:href="#aE"/></g><g id="o"><use transform="matrix(0.05,0,0,0.05,0,0)" xlink:href="#aM"/><use transform="matrix(0.05,0,0,0.05,10,0)" xlink:href="#aD"/><use transform="matrix(0.05,0,0,0.05,20,0)" xlink:href="#aA"/><use transform="matrix(0.05,0,0,0.05,25,0)" xlink:href="#aO"/><use transform="matrix(0.05,0,0,0.05,35,0)" xlink:href="#aK"/><use transform="matrix(0.05,0,0,0.05,38.95,0)" xlink:href="#aP"/><use transform="matrix(0.05,0,0,0.05,42.900000000000006,0)" xlink:href="#az"/></g><path fill="#333" d="M101-251c82-7 93 87 43 132L82-64C71-53 59-42 53-27h129V0H18c2-99 128-94 128-182 0-28-16-43-45-43s-46 15-49 41l-32-3c6-41 34-60 81-64" id="aS"/><g id="p"><use transform="matrix(0.05,0,0,0.05,0,0)" xlink:href="#aS"/><use transform="matrix(0.05,0,0,0.05,10,0)" xlink:href="#aG"/><use transform="matrix(0.05,0,0,0.05,15,0)" xlink:href="#aH"/></g><path fill="#333" d="M30 0v-248h33v221h125V0H30" id="aT"/><path fill="#333" d="M117-194c89-4 53 116 60 194h-32v-121c0-31-8-49-39-48C34-167 62-67 57 0H25l-1-190h30c1 10-1 24 2 32 11-22 29-35 61-36" id="aU"/><g id="q"><use transform="matrix(0.05,0,0,0.05,0,0)" xlink:href="#aT"/><use transform="matrix(0.05,0,0,0.05,10,0)" xlink:href="#aB"/><use transform="matrix(0.05,0,0,0.05,20,0)" xlink:href="#aJ"/><use transform="matrix(0.05,0,0,0.05,30,0)" xlink:href="#aK"/><use transform="matrix(0.05,0,0,0.05,33.95,0)" xlink:href="#aU"/></g><g id="r"><use transform="matrix(0.05,0,0,0.05,0,0)" xlink:href="#ax"/><use transform="matrix(0.05,0,0,0.05,12.950000000000001,0)" xlink:href="#ay"/><use transform="matrix(0.05,0,0,0.05,22.950000000000003,0)" xlink:href="#az"/><use transform="matrix(0.05,0,0,0.05,31.950000000000003,0)" xlink:href="#aA"/><use transform="matrix(0.05,0,0,0.05,36.95,0)" xlink:href="#aB"/><use transform="matrix(0.05,0,0,0.05,46.95,0)" xlink:href="#aC"/><use transform="matrix(0.05,0,0,0.05,61.900000000000006,0)" xlink:href="#aD"/><use transform="matrix(0.05,0,0,0.05,71.9,0)" xlink:href="#aE"/></g><g id="s"><use transform="matrix(0.05,0,0,0.05,0,0)" xlink:href="#ax"/><use transform="matrix(0.05,0,0,0.05,12.950000000000001,0)" xlink:href="#aE"/><use transform="matrix(0.05,0,0,0.05,18.900000000000002,0)" xlink:href="#aD"/><use transform="matrix(0.05,0,0,0.05,28.900000000000002,0)" xlink:href="#aM"/><use transform="matrix(0.05,0,0,0.05,38.900000000000006,0)" xlink:href="#aD"/><use transform="matrix(0.05,0,0,0.05,48.900000000000006,0)" xlink:href="#aU"/><use transform="matrix(0.05,0,0,0.05,58.900000000000006,0)" xlink:href="#aA"/><use transform="matrix(0.05,0,0,0.05,63.900000000000006,0)" xlink:href="#aK"/><use transform="matrix(0.05,0,0,0.05,67.85000000000001,0)" xlink:href="#aO"/><use transform="matrix(0.05,0,0,0.05,77.85000000000001,0)" xlink:href="#aP"/><use transform="matrix(0.05,0,0,0.05,81.80000000000001,0)" xlink:href="#az"/></g><g id="t"><use transform="matrix(0.05,0,0,0.05,0,0)" xlink:href="#aM"/><use transform="matrix(0.05,0,0,0.05,10,0)" xlink:href="#aO"/><use transform="matrix(0.05,0,0,0.05,20,0)" xlink:href="#aA"/><use transform="matrix(0.05,0,0,0.05,25,0)" xlink:href="#aO"/></g><path fill="#333" d="M155-56V0h-30v-56H8v-25l114-167h33v167h35v25h-35zm-30-156c-27 46-58 90-88 131h88v-131" id="aV"/><g id="u"><use transform="matrix(0.05,0,0,0.05,0,0)" xlink:href="#aV"/><use transform="matrix(0.05,0,0,0.05,10,0)" xlink:href="#aG"/><use transform="matrix(0.05,0,0,0.05,15,0)" xlink:href="#aF"/></g><path fill="#333" d="M140-251c81 0 123 46 123 126C263-46 219 4 140 4 59 4 17-45 17-125s42-126 123-126zm0 227c63 0 89-41 89-101s-29-99-89-99c-61 0-89 39-89 99S79-25 140-24" id="aW"/><g id="v"><use transform="matrix(0.05,0,0,0.05,0,0)" xlink:href="#aW"/><use transform="matrix(0.05,0,0,0.05,14,0)" xlink:href="#aE"/><use transform="matrix(0.05,0,0,0.05,19.95,0)" xlink:href="#aM"/><use transform="matrix(0.05,0,0,0.05,29.950000000000003,0)" xlink:href="#aD"/><use transform="matrix(0.05,0,0,0.05,39.95,0)" xlink:href="#aE"/></g><g id="w"><use transform="matrix(0.05,0,0,0.05,0,0)" xlink:href="#aW"/><use transform="matrix(0.05,0,0,0.05,14,0)" xlink:href="#aE"/><use transform="matrix(0.05,0,0,0.05,19.95,0)" xlink:href="#aM"/><use transform="matrix(0.05,0,0,0.05,29.950000000000003,0)" xlink:href="#aD"/><use transform="matrix(0.05,0,0,0.05,39.95,0)" xlink:href="#aE"/></g><path fill="#333" d="M30-248c118-7 216 8 213 122C240-48 200 0 122 0H30v-248zM63-27c89 8 146-16 146-99s-60-101-146-95v194" id="aX"/><g id="x"><use transform="matrix(0.05,0,0,0.05,0,0)" xlink:href="#aX"/><use transform="matrix(0.05,0,0,0.05,12.950000000000001,0)" xlink:href="#aD"/><use transform="matrix(0.05,0,0,0.05,22.950000000000003,0)" xlink:href="#aA"/><use transform="matrix(0.05,0,0,0.05,27.950000000000003,0)" xlink:href="#aO"/><use transform="matrix(0.05,0,0,0.05,37.95,0)" xlink:href="#aK"/><use transform="matrix(0.05,0,0,0.05,41.900000000000006,0)" xlink:href="#aP"/><use transform="matrix(0.05,0,0,0.05,45.85000000000001,0)" xlink:href="#az"/></g><path fill="#333" d="M240 0l2-218c-23 76-54 145-80 218h-23L58-218 59 0H30v-248h44l77 211c21-75 51-140 76-211h43V0h-30" id="aY"/><g id="y"><use transform="matrix(0.05,0,0,0.05,0,0)" xlink:href="#aY"/><use transform="matrix(0.05,0,0,0.05,14.950000000000001,0)" xlink:href="#aD"/><use transform="matrix(0.05,0,0,0.05,24.950000000000003,0)" xlink:href="#aU"/><use transform="matrix(0.05,0,0,0.05,34.95,0)" xlink:href="#ay"/></g><path fill="#333" d="M33 0v-248h34V0H33" id="aZ"/><g id="z"><use transform="matrix(0.05,0,0,0.05,0,0)" xlink:href="#aZ"/><use transform="matrix(0.05,0,0,0.05,5,0)" xlink:href="#aA"/><use transform="matrix(0.05,0,0,0.05,10,0)" xlink:href="#aD"/><use transform="matrix(0.05,0,0,0.05,20,0)" xlink:href="#aC"/><use transform="matrix(0.05,0,0,0.05,34.95,0)" xlink:href="#az"/></g><g id="A"><use transform="matrix(0.05,0,0,0.05,0,0)" xlink:href="#aV"/><use transform="matrix(0.05,0,0,0.05,10,0)" xlink:href="#aG"/><use transform="matrix(0.05,0,0,0.05,15,0)" xlink:href="#aS"/></g><path fill="#333" d="M137 0h-34L2-248h35l83 218 83-218h36" id="ba"/><path fill="#333" d="M101-234c-31-9-42 10-38 44h38v23H63V0H32v-167H5v-23h27c-7-52 17-82 69-68v24" id="bb"/><path fill="#333" d="M179-190L93 31C79 59 56 82 12 73V49c39 6 53-20 64-50L1-190h34L92-34l54-156h33" id="bc"/><g id="B"><use transform="matrix(0.05,0,0,0.05,0,0)" xlink:href="#ba"/><use transform="matrix(0.05,0,0,0.05,11,0)" xlink:href="#aD"/><use transform="matrix(0.05,0,0,0.05,21,0)" xlink:href="#aE"/><use transform="matrix(0.05,0,0,0.05,26.950000000000003,0)" xlink:href="#aK"/><use transform="matrix(0.05,0,0,0.05,30.899999999999995,0)" xlink:href="#bb"/><use transform="matrix(0.05,0,0,0.05,35.9,0)" xlink:href="#bc"/></g><path fill="#333" d="M205 0l-28-72H64L36 0H1l101-248h38L239 0h-34zm-38-99l-47-123c-12 45-31 82-46 123h93" id="bd"/><path fill="#333" d="M108 0H70L1-190h34L89-25l56-165h34" id="be"/><path fill="#333" d="M115-194c53 0 69 39 70 98 0 66-23 100-70 100C84 3 66-7 56-30L54 0H23l1-261h32v101c10-23 28-34 59-34zm-8 174c40 0 45-34 45-75 0-40-5-75-45-74-42 0-51 32-51 76 0 43 10 73 51 73" id="bf"/><g id="C"><use transform="matrix(0.05,0,0,0.05,0,0)" xlink:href="#bd"/><use transform="matrix(0.05,0,0,0.05,11.65,0)" xlink:href="#be"/><use transform="matrix(0.05,0,0,0.05,20.65,0)" xlink:href="#aO"/><use transform="matrix(0.05,0,0,0.05,30.649999999999995,0)" xlink:href="#aK"/><use transform="matrix(0.05,0,0,0.05,34.6,0)" xlink:href="#aP"/><use transform="matrix(0.05,0,0,0.05,38.550000000000004,0)" xlink:href="#aO"/><use transform="matrix(0.05,0,0,0.05,48.550000000000004,0)" xlink:href="#bf"/><use transform="matrix(0.05,0,0,0.05,58.550000000000004,0)" xlink:href="#aP"/><use transform="matrix(0.05,0,0,0.05,62.5,0)" xlink:href="#aK"/><use transform="matrix(0.05,0,0,0.05,66.45,0)" xlink:href="#aA"/><use transform="matrix(0.05,0,0,0.05,71.45,0)" xlink:href="#bc"/></g><g id="D"><use transform="matrix(0.05,0,0,0.05,0,0)" xlink:href="#bd"/><use transform="matrix(0.05,0,0,0.05,11.65,0)" xlink:href="#be"/><use transform="matrix(0.05,0,0,0.05,20.65,0)" xlink:href="#aO"/><use transform="matrix(0.05,0,0,0.05,30.649999999999995,0)" xlink:href="#aK"/><use transform="matrix(0.05,0,0,0.05,34.6,0)" xlink:href="#aP"/><use transform="matrix(0.05,0,0,0.05,38.550000000000004,0)" xlink:href="#aO"/><use transform="matrix(0.05,0,0,0.05,48.550000000000004,0)" xlink:href="#bf"/><use transform="matrix(0.05,0,0,0.05,58.550000000000004,0)" xlink:href="#aK"/><use transform="matrix(0.05,0,0,0.05,62.5,0)" xlink:href="#aP"/><use transform="matrix(0.05,0,0,0.05,66.45,0)" xlink:href="#aK"/><use transform="matrix(0.05,0,0,0.05,70.4,0)" xlink:href="#aA"/><use transform="matrix(0.05,0,0,0.05,75.4,0)" xlink:href="#bc"/></g><g id="E"><use transform="matrix(0.05,0,0,0.05,0,0)" xlink:href="#bd"/><use transform="matrix(0.05,0,0,0.05,11.65,0)" xlink:href="#be"/><use transform="matrix(0.05,0,0,0.05,20.65,0)" xlink:href="#aO"/><use transform="matrix(0.05,0,0,0.05,30.649999999999995,0)" xlink:href="#aK"/><use transform="matrix(0.05,0,0,0.05,34.6,0)" xlink:href="#aP"/><use transform="matrix(0.05,0,0,0.05,38.550000000000004,0)" xlink:href="#aO"/><use transform="matrix(0.05,0,0,0.05,48.550000000000004,0)" xlink:href="#bf"/><use transform="matrix(0.05,0,0,0.05,58.550000000000004,0)" xlink:href="#aP"/><use transform="matrix(0.05,0,0,0.05,62.5,0)" xlink:href="#aD"/></g><path fill="#333" d="M140-251c81 0 123 46 123 126C263-53 228-8 163 1c7 30 30 48 69 40v23c-55 16-95-15-103-61C56-3 17-48 17-125c0-80 42-126 123-126zm0 227c63 0 89-41 89-101s-29-99-89-99c-61 0-89 39-89 99S79-25 140-24" id="bg"/><g id="F"><use transform="matrix(0.05,0,0,0.05,0,0)" xlink:href="#bg"/><use transform="matrix(0.05,0,0,0.05,14,0)" xlink:href="#ay"/><use transform="matrix(0.05,0,0,0.05,24,0)" xlink:href="#aO"/><use transform="matrix(0.05,0,0,0.05,34,0)" xlink:href="#aU"/><use transform="matrix(0.05,0,0,0.05,44,0)" xlink:href="#aA"/><use transform="matrix(0.05,0,0,0.05,49,0)" xlink:href="#aK"/><use transform="matrix(0.05,0,0,0.05,52.95,0)" xlink:href="#aA"/><use transform="matrix(0.05,0,0,0.05,57.95,0)" xlink:href="#bc"/></g><g id="G"><use transform="matrix(0.05,0,0,0.05,0,0)" xlink:href="#aW"/><use transform="matrix(0.05,0,0,0.05,14,0)" xlink:href="#aE"/><use transform="matrix(0.05,0,0,0.05,19.95,0)" xlink:href="#aM"/><use transform="matrix(0.05,0,0,0.05,29.950000000000003,0)" xlink:href="#aD"/><use transform="matrix(0.05,0,0,0.05,39.95,0)" xlink:href="#aE"/><use transform="matrix(0.05,0,0,0.05,45.900000000000006,0)" xlink:href="#az"/></g><g id="H"><use transform="matrix(0.05,0,0,0.05,0,0)" xlink:href="#ax"/><use transform="matrix(0.05,0,0,0.05,12.950000000000001,0)" xlink:href="#ay"/><use transform="matrix(0.05,0,0,0.05,22.950000000000003,0)" xlink:href="#az"/><use transform="matrix(0.05,0,0,0.05,31.950000000000003,0)" xlink:href="#aA"/><use transform="matrix(0.05,0,0,0.05,36.95,0)" xlink:href="#aB"/><use transform="matrix(0.05,0,0,0.05,46.95,0)" xlink:href="#aC"/><use transform="matrix(0.05,0,0,0.05,61.900000000000006,0)" xlink:href="#aD"/><use transform="matrix(0.05,0,0,0.05,71.9,0)" xlink:href="#aE"/></g><g id="I"><use transform="matrix(0.05,0,0,0.05,0,0)" xlink:href="#aW"/><use transform="matrix(0.05,0,0,0.05,14,0)" xlink:href="#aE"/><use transform="matrix(0.05,0,0,0.05,19.95,0)" xlink:href="#aM"/><use transform="matrix(0.05,0,0,0.05,29.950000000000003,0)" xlink:href="#aD"/><use transform="matrix(0.05,0,0,0.05,39.95,0)" xlink:href="#aE"/></g><g id="J"><use transform="matrix(0.05,0,0,0.05,0,0)" xlink:href="#ax"/><use transform="matrix(0.05,0,0,0.05,12.950000000000001,0)" xlink:href="#aB"/><use transform="matrix(0.05,0,0,0.05,22.950000000000003,0)" xlink:href="#aU"/><use transform="matrix(0.05,0,0,0.05,32.95,0)" xlink:href="#bb"/><use transform="matrix(0.05,0,0,0.05,37.95,0)" xlink:href="#aK"/><use transform="matrix(0.05,0,0,0.05,41.900000000000006,0)" xlink:href="#aE"/><use transform="matrix(0.05,0,0,0.05,47.85000000000001,0)" xlink:href="#aC"/><use transform="matrix(0.05,0,0,0.05,62.80000000000001,0)" xlink:href="#aO"/><use transform="matrix(0.05,0,0,0.05,72.80000000000001,0)" xlink:href="#aA"/><use transform="matrix(0.05,0,0,0.05,77.80000000000001,0)" xlink:href="#aK"/><use transform="matrix(0.05,0,0,0.05,81.75000000000001,0)" xlink:href="#aB"/><use transform="matrix(0.05,0,0,0.05,91.75000000000001,0)" xlink:href="#aU"/></g><g id="K"><use transform="matrix(0.05,0,0,0.05,0,0)" xlink:href="#aT"/><use transform="matrix(0.05,0,0,0.05,10,0)" xlink:href="#aB"/><use transform="matrix(0.05,0,0,0.05,20,0)" xlink:href="#aJ"/><use transform="matrix(0.05,0,0,0.05,30,0)" xlink:href="#aK"/><use transform="matrix(0.05,0,0,0.05,33.95,0)" xlink:href="#aU"/></g><path fill="#333" d="M185-189c-5-48-123-54-124 2 14 75 158 14 163 119 3 78-121 87-175 55-17-10-28-26-33-46l33-7c5 56 141 63 141-1 0-78-155-14-162-118-5-82 145-84 179-34 5 7 8 16 11 25" id="bh"/><g id="L"><use transform="matrix(0.05,0,0,0.05,0,0)" xlink:href="#bh"/><use transform="matrix(0.05,0,0,0.05,12,0)" xlink:href="#aD"/><use transform="matrix(0.05,0,0,0.05,22,0)" xlink:href="#az"/><use transform="matrix(0.05,0,0,0.05,31,0)" xlink:href="#az"/><use transform="matrix(0.05,0,0,0.05,40,0)" xlink:href="#aK"/><use transform="matrix(0.05,0,0,0.05,43.95,0)" xlink:href="#aB"/><use transform="matrix(0.05,0,0,0.05,53.95,0)" xlink:href="#aU"/></g><path fill="#333" d="M106-169C34-169 62-67 57 0H25v-261h32l-1 103c12-21 28-36 61-36 89 0 53 116 60 194h-32v-121c2-32-8-49-39-48" id="bi"/><path fill="#333" d="M96-169c-40 0-48 33-48 73s9 75 48 75c24 0 41-14 43-38l32 2c-6 37-31 61-74 61-59 0-76-41-82-99-10-93 101-131 147-64 4 7 5 14 7 22l-32 3c-4-21-16-35-41-35" id="bj"/><g id="M"><use transform="matrix(0.05,0,0,0.05,0,0)" xlink:href="#bd"/><use transform="matrix(0.05,0,0,0.05,12,0)" xlink:href="#ay"/><use transform="matrix(0.05,0,0,0.05,22,0)" xlink:href="#aA"/><use transform="matrix(0.05,0,0,0.05,27,0)" xlink:href="#bi"/><use transform="matrix(0.05,0,0,0.05,37,0)" xlink:href="#aD"/><use transform="matrix(0.05,0,0,0.05,47,0)" xlink:href="#aU"/><use transform="matrix(0.05,0,0,0.05,57,0)" xlink:href="#aA"/><use transform="matrix(0.05,0,0,0.05,62,0)" xlink:href="#aK"/><use transform="matrix(0.05,0,0,0.05,65.95,0)" xlink:href="#bj"/><use transform="matrix(0.05,0,0,0.05,74.95,0)" xlink:href="#aO"/><use transform="matrix(0.05,0,0,0.05,84.95,0)" xlink:href="#aA"/><use transform="matrix(0.05,0,0,0.05,89.95,0)" xlink:href="#aD"/><use transform="matrix(0.05,0,0,0.05,99.95,0)" xlink:href="#aM"/></g><g id="N"><use transform="matrix(0.05,0,0,0.05,0,0)" xlink:href="#ax"/><use transform="matrix(0.05,0,0,0.05,12.950000000000001,0)" xlink:href="#ay"/><use transform="matrix(0.05,0,0,0.05,22.950000000000003,0)" xlink:href="#az"/><use transform="matrix(0.05,0,0,0.05,31.950000000000003,0)" xlink:href="#aA"/><use transform="matrix(0.05,0,0,0.05,36.95,0)" xlink:href="#aB"/><use transform="matrix(0.05,0,0,0.05,46.95,0)" xlink:href="#aC"/><use transform="matrix(0.05,0,0,0.05,61.900000000000006,0)" xlink:href="#aD"/><use transform="matrix(0.05,0,0,0.05,71.9,0)" xlink:href="#aE"/></g><path fill="#333" d="M54-142c48-35 137-8 131 61C196 18 31 33 14-55l32-4c7 23 22 37 52 37 35-1 51-22 54-58 4-55-73-65-99-34H22l8-134h141v27H59" id="bk"/><g id="O"><use transform="matrix(0.05,0,0,0.05,0,0)" xlink:href="#bk"/><use transform="matrix(0.05,0,0,0.05,10,0)" xlink:href="#aG"/><use transform="matrix(0.05,0,0,0.05,15,0)" xlink:href="#aF"/></g><path fill="#333" d="M143 0L79-87 56-68V0H24v-261h32v163l83-92h37l-77 82L181 0h-38" id="bl"/><path fill="#333" d="M115-194c55 1 70 41 70 98S169 2 115 4C84 4 66-9 55-30l1 105H24l-1-265h31l2 30c10-21 28-34 59-34zm-8 174c40 0 45-34 45-75s-6-73-45-74c-42 0-51 32-51 76 0 43 10 73 51 73" id="bm"/><g id="P"><use transform="matrix(0.05,0,0,0.05,0,0)" xlink:href="#aQ"/><use transform="matrix(0.05,0,0,0.05,12,0)" xlink:href="#aK"/><use transform="matrix(0.05,0,0,0.05,15.949999999999998,0)" xlink:href="#bj"/><use transform="matrix(0.05,0,0,0.05,24.95,0)" xlink:href="#bl"/><use transform="matrix(0.05,0,0,0.05,33.95,0)" xlink:href="#ay"/><use transform="matrix(0.05,0,0,0.05,43.95,0)" xlink:href="#bm"/></g><g id="Q"><use transform="matrix(0.05,0,0,0.05,0,0)" xlink:href="#aK"/><use transform="matrix(0.05,0,0,0.05,3.95,0)" xlink:href="#aM"/></g><g id="R"><use transform="matrix(0.05,0,0,0.05,0,0)" xlink:href="#bk"/><use transform="matrix(0.05,0,0,0.05,10,0)" xlink:href="#aG"/><use transform="matrix(0.05,0,0,0.05,15,0)" xlink:href="#aS"/></g><g id="S"><use transform="matrix(0.05,0,0,0.05,0,0)" xlink:href="#aY"/><use transform="matrix(0.05,0,0,0.05,14.950000000000001,0)" xlink:href="#aD"/><use transform="matrix(0.05,0,0,0.05,24.950000000000003,0)" xlink:href="#aO"/><use transform="matrix(0.05,0,0,0.05,34.95,0)" xlink:href="#aP"/></g><g id="T"><use transform="matrix(0.05,0,0,0.05,0,0)" xlink:href="#aY"/><use transform="matrix(0.05,0,0,0.05,14.950000000000001,0)" xlink:href="#aD"/><use transform="matrix(0.05,0,0,0.05,24.950000000000003,0)" xlink:href="#aO"/><use transform="matrix(0.05,0,0,0.05,34.95,0)" xlink:href="#aP"/><use transform="matrix(0.05,0,0,0.05,38.900000000000006,0)" xlink:href="#az"/></g><g id="U"><use transform="matrix(0.05,0,0,0.05,0,0)" xlink:href="#aQ"/><use transform="matrix(0.05,0,0,0.05,12,0)" xlink:href="#aK"/><use transform="matrix(0.05,0,0,0.05,15.949999999999998,0)" xlink:href="#bj"/><use transform="matrix(0.05,0,0,0.05,24.95,0)" xlink:href="#bl"/><use transform="matrix(0.05,0,0,0.05,33.95,0)" xlink:href="#aD"/><use transform="matrix(0.05,0,0,0.05,43.95,0)" xlink:href="#aM"/></g><g id="V"><use transform="matrix(0.05,0,0,0.05,0,0)" xlink:href="#ay"/><use transform="matrix(0.05,0,0,0.05,10,0)" xlink:href="#bm"/></g><g id="W"><use transform="matrix(0.05,0,0,0.05,0,0)" xlink:href="#bh"/><use transform="matrix(0.05,0,0,0.05,12,0)" xlink:href="#aA"/><use transform="matrix(0.05,0,0,0.05,17,0)" xlink:href="#aB"/><use transform="matrix(0.05,0,0,0.05,27,0)" xlink:href="#aE"/><use transform="matrix(0.05,0,0,0.05,32.95,0)" xlink:href="#aD"/></g><g id="X"><use transform="matrix(0.05,0,0,0.05,0,0)" xlink:href="#bd"/><use transform="matrix(0.05,0,0,0.05,12,0)" xlink:href="#aM"/><use transform="matrix(0.05,0,0,0.05,22,0)" xlink:href="#aC"/><use transform="matrix(0.05,0,0,0.05,36.95,0)" xlink:href="#aK"/><use transform="matrix(0.05,0,0,0.05,40.900000000000006,0)" xlink:href="#aU"/></g><g id="Y"><use transform="matrix(0.05,0,0,0.05,0,0)" xlink:href="#bd"/><use transform="matrix(0.05,0,0,0.05,12,0)" xlink:href="#aM"/><use transform="matrix(0.05,0,0,0.05,22,0)" xlink:href="#aC"/><use transform="matrix(0.05,0,0,0.05,36.95,0)" xlink:href="#aK"/><use transform="matrix(0.05,0,0,0.05,40.900000000000006,0)" xlink:href="#aU"/></g><g id="Z"><use transform="matrix(0.05,0,0,0.05,0,0)" xlink:href="#ax"/><use transform="matrix(0.05,0,0,0.05,12.950000000000001,0)" xlink:href="#aE"/><use transform="matrix(0.05,0,0,0.05,18.900000000000002,0)" xlink:href="#aD"/><use transform="matrix(0.05,0,0,0.05,28.900000000000002,0)" xlink:href="#aM"/><use transform="matrix(0.05,0,0,0.05,38.900000000000006,0)" xlink:href="#aD"/><use transform="matrix(0.05,0,0,0.05,48.900000000000006,0)" xlink:href="#aU"/><use transform="matrix(0.05,0,0,0.05,58.900000000000006,0)" xlink:href="#aA"/><use transform="matrix(0.05,0,0,0.05,63.900000000000006,0)" xlink:href="#aO"/><use transform="matrix(0.05,0,0,0.05,73.9,0)" xlink:href="#aK"/><use transform="matrix(0.05,0,0,0.05,77.85000000000001,0)" xlink:href="#aP"/><use transform="matrix(0.05,0,0,0.05,81.80000000000001,0)" xlink:href="#az"/></g><path fill="#333" d="M126-127c33 6 58 20 58 59 0 88-139 92-164 29-3-8-5-16-6-25l32-3c6 27 21 44 54 44 32 0 52-15 52-46 0-38-36-46-79-43v-28c39 1 72-4 72-42 0-27-17-43-46-43-28 0-47 15-49 41l-32-3c6-42 35-63 81-64 48-1 79 21 79 65 0 36-21 52-52 59" id="bn"/><g id="aa"><use transform="matrix(0.05,0,0,0.05,0,0)" xlink:href="#bn"/><use transform="matrix(0.05,0,0,0.05,10,0)" xlink:href="#aG"/><use transform="matrix(0.05,0,0,0.05,15,0)" xlink:href="#aH"/></g><g id="ab"><use transform="matrix(0.05,0,0,0.05,0,0)" xlink:href="#ax"/><use transform="matrix(0.05,0,0,0.05,12.950000000000001,0)" xlink:href="#aE"/><use transform="matrix(0.05,0,0,0.05,18.900000000000002,0)" xlink:href="#aD"/><use transform="matrix(0.05,0,0,0.05,28.900000000000002,0)" xlink:href="#aO"/><use transform="matrix(0.05,0,0,0.05,38.900000000000006,0)" xlink:href="#aA"/><use transform="matrix(0.05,0,0,0.05,43.900000000000006,0)" xlink:href="#aD"/></g><g id="ac"><use transform="matrix(0.05,0,0,0.05,0,0)" xlink:href="#aY"/><use transform="matrix(0.05,0,0,0.05,14.950000000000001,0)" xlink:href="#aD"/><use transform="matrix(0.05,0,0,0.05,24.950000000000003,0)" xlink:href="#aU"/><use transform="matrix(0.05,0,0,0.05,34.95,0)" xlink:href="#ay"/></g><g id="ad"><use transform="matrix(0.05,0,0,0.05,0,0)" xlink:href="#aZ"/><use transform="matrix(0.05,0,0,0.05,5,0)" xlink:href="#aA"/><use transform="matrix(0.05,0,0,0.05,10,0)" xlink:href="#aD"/><use transform="matrix(0.05,0,0,0.05,20,0)" xlink:href="#aC"/></g><g id="ae"><use transform="matrix(0.05,0,0,0.05,0,0)" xlink:href="#aZ"/><use transform="matrix(0.05,0,0,0.05,5,0)" xlink:href="#aA"/><use transform="matrix(0.05,0,0,0.05,10,0)" xlink:href="#aD"/><use transform="matrix(0.05,0,0,0.05,20,0)" xlink:href="#aC"/></g><g id="af"><use transform="matrix(0.05,0,0,0.05,0,0)" xlink:href="#bh"/><use transform="matrix(0.05,0,0,0.05,12,0)" xlink:href="#aA"/><use transform="matrix(0.05,0,0,0.05,17,0)" xlink:href="#aB"/><use transform="matrix(0.05,0,0,0.05,27,0)" xlink:href="#aE"/><use transform="matrix(0.05,0,0,0.05,32.95,0)" xlink:href="#aD"/></g><g id="ag"><use transform="matrix(0.05,0,0,0.05,0,0)" xlink:href="#aV"/><use transform="matrix(0.05,0,0,0.05,10,0)" xlink:href="#aG"/><use transform="matrix(0.05,0,0,0.05,15,0)" xlink:href="#bn"/></g><g id="ah"><use transform="matrix(0.05,0,0,0.05,0,0)" xlink:href="#aL"/><use transform="matrix(0.05,0,0,0.05,12.950000000000001,0)" xlink:href="#bm"/><use transform="matrix(0.05,0,0,0.05,22.950000000000003,0)" xlink:href="#aM"/><use transform="matrix(0.05,0,0,0.05,32.95,0)" xlink:href="#aO"/><use transform="matrix(0.05,0,0,0.05,42.95,0)" xlink:href="#aA"/><use transform="matrix(0.05,0,0,0.05,47.95,0)" xlink:href="#aD"/></g><g id="ai"><use transform="matrix(0.05,0,0,0.05,0,0)" xlink:href="#bd"/><use transform="matrix(0.05,0,0,0.05,11.65,0)" xlink:href="#be"/><use transform="matrix(0.05,0,0,0.05,20.65,0)" xlink:href="#aO"/><use transform="matrix(0.05,0,0,0.05,30.649999999999995,0)" xlink:href="#aK"/><use transform="matrix(0.05,0,0,0.05,34.6,0)" xlink:href="#aP"/><use transform="matrix(0.05,0,0,0.05,38.550000000000004,0)" xlink:href="#aO"/><use transform="matrix(0.05,0,0,0.05,48.550000000000004,0)" xlink:href="#bf"/><use transform="matrix(0.05,0,0,0.05,58.550000000000004,0)" xlink:href="#aK"/><use transform="matrix(0.05,0,0,0.05,62.5,0)" xlink:href="#aP"/><use transform="matrix(0.05,0,0,0.05,66.45,0)" xlink:href="#aK"/><use transform="matrix(0.05,0,0,0.05,70.4,0)" xlink:href="#aA"/><use transform="matrix(0.05,0,0,0.05,75.4,0)" xlink:href="#bc"/></g></defs></g></svg>